<svg xmlns="http://www.w3.org/2000/svg" viewBox="0 0 64 64" role="img" aria-label="Charly the mascot">
  <!-- body: smooth heart, same palette as the pixel art -->
  <path
    d="M32 57
       C 13 47, 5 35, 5 24.5
       C 5 14.5, 12.5 8, 21 9.5
       C 26 10.4, 29.8 14, 32 18.5
       C 34.2 14, 38 10.4, 43 9.5
       C 51.5 8, 59 14.5, 59 24.5
       C 59 35, 51 47, 32 57 Z"
    fill="#D95763" stroke="#000" stroke-width="2.5" stroke-linejoin="round"/>
  <!-- soft top-left highlight -->
  <path
    d="M12 20 C 13 14.5, 18 11.5, 22.5 12.5 C 18.5 14.5, 15 17, 13.5 22 C 12.8 24.3, 11.6 22.5, 12 20 Z"
    fill="#E8798A" opacity="0.9"/>
  <!-- eyes: tall ovals with sparkles -->
  <g>
    <ellipse cx="24" cy="24.5" rx="3.6" ry="5.2" fill="#000"/>
    <ellipse cx="40" cy="24.5" rx="3.6" ry="5.2" fill="#000"/>
    <circle cx="25.2" cy="22.6" r="1.3" fill="#FFF"/>
    <circle cx="41.2" cy="22.6" r="1.3" fill="#FFF"/>
    <circle cx="23.2" cy="26.6" r="0.7" fill="#FFF"/>
    <circle cx="39.2" cy="26.6" r="0.7" fill="#FFF"/>
  </g>
  <!-- open smile -->
  <path
    d="M26.5 34.5 Q 32 36 37.5 34.5 Q 36.5 40.5 32 40.5 Q 27.5 40.5 26.5 34.5 Z"
    fill="#FFF" stroke="#000" stroke-width="1.8" stroke-linejoin="round"/>
  <!-- blush -->
  <ellipse cx="16.5" cy="30" rx="2.6" ry="1.6" fill="#C1444F" opacity="0.55"/>
  <ellipse cx="47.5" cy="30" rx="2.6" ry="1.6" fill="#C1444F" opacity="0.55"/>
</svg>
